<svg version="1.1" viewBox="0.0 0.0 322.18372703412075 280.59055118110234" fill="none" stroke="none" stroke-linecap="square" stroke-miterlimit="10" xmlns:xlink="http://www.w3.org/1999/xlink" xmlns="http://www.w3.org/2000/svg"><clipPath id="p.0"><path d="m0 0l322.18372 0l0 280.59055l-322.18372 0l0 -280.59055z" clip-rule="nonzero"/></clipPath><g clip-path="url(#p.0)"><path fill="#000000" fill-opacity="0.0" d="m0 0l322.18372 0l0 280.59055l-322.18372 0z" fill-rule="evenodd"/><path fill="#f1b300" d="m0 41.790863l0 0c0 -23.080458 18.710405 -41.790863 41.790863 -41.790863l219.88284 0c11.083618 0 21.713287 4.402953 29.550598 12.24026c7.837311 7.837306 12.240265 18.466976 12.240265 29.550602l0 167.15843c0 23.08046 -18.710419 41.790863 -41.790863 41.790863l-219.88284 0c-23.080458 0 -41.790863 -18.710403 -41.790863 -41.790863z" fill-rule="evenodd"/><path fill="#434343" d="m30.67979 70.52315l0 0c0 -23.08046 18.710407 -41.790863 41.79086 -41.790863l206.65451 0c11.083618 0 21.713287 4.402952 29.550598 12.240259c7.837311 7.837307 12.240265 18.466976 12.240265 29.550606l0 167.15843c0 23.080444 -18.710419 41.790863 -41.790863 41.790863l-206.65451 0c-23.080452 0 -41.79086 -18.710419 -41.79086 -41.790863z" fill-rule="evenodd"/><path fill="#ffffff" d="m76.35669 216.21257l41.32283 -92.47244l14.645676 6.4252014l-41.322838 92.47244z" fill-rule="evenodd"/><path stroke="#ffffff" stroke-width="2.320209973753281" stroke-linejoin="round" stroke-linecap="butt" d="m76.35669 216.21257l41.32283 -92.47244l14.645676 6.4252014l-41.322838 92.47244z" fill-rule="evenodd"/><path fill="#ffffff" d="m220.59767 184.68246l32.881897 -112.40945l14.141739 4.2834625l-32.881897 112.40945z" fill-rule="evenodd"/><path stroke="#ffffff" stroke-width="2.320209973753281" stroke-linejoin="round" stroke-linecap="butt" d="m220.59767 184.68246l32.881897 -112.40945l14.141739 4.2834625l-32.881897 112.40945z" fill-rule="evenodd"/><path fill="#ffffff" d="m129.35617 121.324066l106.74016 48.18898l-6.3937073 13.8897705l-106.74015 -48.18898z" fill-rule="evenodd"/><path stroke="#ffffff" stroke-width="2.320209973753281" stroke-linejoin="round" stroke-linecap="butt" d="m129.35617 121.324066l106.74016 48.18898l-6.3937073 13.8897705l-106.74015 -48.18898z" fill-rule="evenodd"/><path fill="#ffffff" d="m239.5881 78.393326l0 0c0 -10.619522 9.144669 -19.228348 20.425201 -19.228348l0 0c5.4170837 0 10.612305 2.025837 14.44278 5.631851c3.8304749 3.606018 5.9823914 8.496819 5.9823914 13.596497l0 0c0 10.619522 -9.144653 19.228348 -20.42517 19.228348l0 0c-11.280533 0 -20.425201 -8.608826 -20.425201 -19.228348z" fill-rule="evenodd"/><path stroke="#ffffff" stroke-width="2.320209973753281" stroke-linejoin="round" stroke-linecap="butt" d="m239.5881 78.393326l0 0c0 -10.619522 9.144669 -19.228348 20.425201 -19.228348l0 0c5.4170837 0 10.612305 2.025837 14.44278 5.631851c3.8304749 3.606018 5.9823914 8.496819 5.9823914 13.596497l0 0c0 10.619522 -9.144653 19.228348 -20.42517 19.228348l0 0c-11.280533 0 -20.425201 -8.608826 -20.425201 -19.228348z" fill-rule="evenodd"/><path fill="#ffffff" d="m208.12354 176.05737l0 0c0 -10.619522 9.144669 -19.228348 20.425186 -19.228348l0 0c5.417099 0 10.612335 2.0258331 14.442795 5.631851c3.8304749 3.606018 5.9824066 8.496811 5.9824066 13.596497l0 0c0 10.619522 -9.144669 19.228333 -20.425201 19.228333l0 0c-11.280518 0 -20.425186 -8.60881 -20.425186 -19.228333z" fill-rule="evenodd"/><path stroke="#ffffff" stroke-width="2.320209973753281" stroke-linejoin="round" stroke-linecap="butt" d="m208.12354 176.05737l0 0c0 -10.619522 9.144669 -19.228348 20.425186 -19.228348l0 0c5.417099 0 10.612335 2.0258331 14.442795 5.631851c3.8304749 3.606018 5.9824066 8.496811 5.9824066 13.596497l0 0c0 10.619522 -9.144669 19.228333 -20.425201 19.228333l0 0c-11.280518 0 -20.425186 -8.60881 -20.425186 -19.228333z" fill-rule="evenodd"/><path fill="#ffffff" d="m102.67471 125.369705l0 0c0 -10.619522 9.144669 -19.228348 20.425194 -19.228348l0 0c5.4171066 0 10.612328 2.0258331 14.442802 5.631851c3.8304596 3.606018 5.9823914 8.496819 5.9823914 13.596497l0 0c0 10.619522 -9.144669 19.228348 -20.425194 19.228348l0 0c-11.280525 0 -20.425194 -8.608826 -20.425194 -19.228348z" fill-rule="evenodd"/><path stroke="#ffffff" stroke-width="2.320209973753281" stroke-linejoin="round" stroke-linecap="butt" d="m102.67471 125.369705l0 0c0 -10.619522 9.144669 -19.228348 20.425194 -19.228348l0 0c5.4171066 0 10.612328 2.0258331 14.442802 5.631851c3.8304596 3.606018 5.9823914 8.496819 5.9823914 13.596497l0 0c0 10.619522 -9.144669 19.228348 -20.425194 19.228348l0 0c-11.280525 0 -20.425194 -8.608826 -20.425194 -19.228348z" fill-rule="evenodd"/><path fill="#ffffff" d="m61.824318 222.33559l0 0c0 -10.619522 9.144669 -19.228348 20.425194 -19.228348l0 0c5.417099 0 10.612328 2.0258331 14.442795 5.631851c3.8304749 3.606018 5.9824066 8.496811 5.9824066 13.596497l0 0c0 10.619522 -9.144676 19.228348 -20.425201 19.228348l0 0c-11.280525 0 -20.425194 -8.608826 -20.425194 -19.228348z" fill-rule="evenodd"/><path stroke="#ffffff" stroke-width="2.320209973753281" stroke-linejoin="round" stroke-linecap="butt" d="m61.824318 222.33559l0 0c0 -10.619522 9.144669 -19.228348 20.425194 -19.228348l0 0c5.417099 0 10.612328 2.0258331 14.442795 5.631851c3.8304749 3.606018 5.9824066 8.496811 5.9824066 13.596497l0 0c0 10.619522 -9.144676 19.228348 -20.425201 19.228348l0 0c-11.280525 0 -20.425194 -8.608826 -20.425194 -19.228348z" fill-rule="evenodd"/></g></svg>