<svg version="1.1" viewBox="0.0 0.0 734.9580052493438 282.62467191601047" fill="none" stroke="none" stroke-linecap="square" stroke-miterlimit="10" xmlns:xlink="http://www.w3.org/1999/xlink" xmlns="http://www.w3.org/2000/svg"><clipPath id="p.0"><path d="m0 0l734.958 0l0 282.62466l-734.958 0l0 -282.62466z" clip-rule="nonzero"/></clipPath><g clip-path="url(#p.0)"><path fill="#000000" fill-opacity="0.0" d="m0 0l734.958 0l0 282.62466l-734.958 0z" fill-rule="evenodd"/><path fill="#6aa84f" d="m0 41.790863l0 0c0 -23.080458 18.710405 -41.790863 41.790863 -41.790863l618.4971 0c11.083618 0 21.713257 4.402953 29.550598 12.24026c7.8372803 7.837306 12.240234 18.466976 12.240234 29.550602l0 167.15843c0 23.08046 -18.710388 41.790863 -41.790833 41.790863l-618.4971 0c-23.080458 0 -41.790863 -18.710403 -41.790863 -41.790863z" fill-rule="evenodd"/><path fill="#45818e" d="m30.67979 70.52315l0 0c0 -23.08046 18.710407 -41.790863 41.79086 -41.790863l618.497 0c11.083618 0 21.713318 4.402952 29.550598 12.240259c7.8373413 7.837307 12.240295 18.466976 12.240295 29.550606l0 167.15843c0 23.080444 -18.71045 41.790863 -41.790894 41.790863l-618.497 0c-23.080452 0 -41.79086 -18.710419 -41.79086 -41.790863z" fill-rule="evenodd"/><path fill="#000000" fill-opacity="0.0" d="m66.57743 58.11811l635.49603 0l0 192.62991l-635.49603 0z" fill-rule="evenodd"/><path fill="#ffffff" d="m237.6661 186.98807q-5.015625 0 -9.28125 -1.3125q-4.265625 -1.328125 -7.75 -4.0q-3.46875 -2.6875 -6.1875 -6.65625l6.5 -7.46875q4.3125 6.15625 8.265625 8.53125q3.96875 2.375 9.421875 2.375q3.34375 0 6.078125 -1.046875q2.734375 -1.0625 4.3125 -2.90625q1.578125 -1.859375 1.578125 -4.234375q0 -1.578125 -0.53125 -2.984375q-0.515625 -1.40625 -1.625 -2.546875q-1.09375 -1.15625 -2.8125 -2.125q-1.71875 -0.96875 -4.015625 -1.703125q-2.28125 -0.75 -5.265625 -1.28125q-4.75 -0.96875 -8.28125 -2.546875q-3.515625 -1.59375 -5.890625 -3.96875q-2.375 -2.375 -3.515625 -5.40625q-1.140625 -3.046875 -1.140625 -6.828125q0 -3.6875 1.625 -6.859375q1.625 -3.171875 4.484375 -5.5q2.859375 -2.3281174 6.734375 -3.6093674q3.875 -1.28125 8.359375 -1.28125q4.75 0 8.703125 1.234375q3.96875 1.234375 7.046875 3.6562424q3.078125 2.421875 5.109375 5.9375l-6.6875 6.59375q-1.765625 -2.890625 -3.96875 -4.875q-2.1875 -1.984375 -4.828125 -2.984375q-2.640625 -1.015625 -5.640625 -1.015625q-3.4375 0 -5.984375 1.0625q-2.546875 1.046875 -4.0 2.9375q-1.453125 1.890625 -1.453125 4.4375q0 1.859375 0.703125 3.40625q0.703125 1.53125 2.15625 2.71875q1.453125 1.1875 3.90625 2.109375q2.46875 0.921875 5.90625 1.625q4.84375 1.0625 8.625 2.6875q3.78125 1.625 6.421875 3.828125q2.640625 2.203125 4.0 4.9375q1.375 2.71875 1.375 5.890625q0 5.890625 -2.734375 10.203125q-2.734375 4.3125 -7.75 6.640625q-5.015625 2.328125 -11.96875 2.328125zm53.240173 0q-6.421875 0 -11.484375 -3.15625q-5.046875 -3.171875 -8.0 -8.625q-2.953125 -5.46875 -2.953125 -12.234375q0 -6.78125 2.953125 -12.234375q2.953125 -5.453125 8.0 -8.625q5.0625 -3.171875 11.484375 -3.171875q6.171875 0 11.21875 2.515625q5.0625 2.5 7.703125 6.8125l-5.015625 6.15625q-1.40625 -2.015625 -3.609375 -3.6875q-2.1875 -1.671875 -4.65625 -2.640625q-2.46875 -0.96875 -4.75 -0.96875q-4.234375 0 -7.53125 2.078125q-3.296875 2.0625 -5.234375 5.671875q-1.9375 3.609375 -1.9375 8.09375q0 4.484375 2.015625 8.046875q2.03125 3.5625 5.375 5.6875q3.34375 2.109375 7.390625 2.109375q2.375 0 4.625 -0.796875q2.25 -0.796875 4.359375 -2.375q2.109375 -1.59375 3.953125 -3.875l5.015625 6.15625q-2.8125 3.96875 -8.046875 6.515625q-5.234375 2.546875 -10.875 2.546875zm28.955017 -0.875l0 -46.203125l9.0625 0l0 46.203125l-9.0625 0zm4.40625 -56.40625q-2.90625 0 -4.5 -1.5q-1.578125 -1.4999924 -1.578125 -4.2187424q0 -2.5625 1.625 -4.140625q1.640625 -1.578125 4.453125 -1.578125q2.90625 0 4.484375 1.5q1.578125 1.484375 1.578125 4.21875q0 2.546875 -1.625 4.1406174q-1.625 1.578125 -4.4375 1.578125zm26.83902 41.96875l-0.4375 -9.84375l22.078125 -21.921875l12.234375 0l-33.875 31.765625zm-8.265625 14.4375l0 -65.12499l9.0625 0l0 65.12499l-9.0625 0zm31.140625 0l-17.421875 -20.328125l6.421875 -5.890625l22.625 26.21875l-11.625 0zm20.32779 0l0 -46.203125l9.0625 0l0 46.203125l-9.0625 0zm4.40625 -56.40625q-2.90625 0 -4.5 -1.5q-1.578125 -1.4999924 -1.578125 -4.2187424q0 -2.5625 1.625 -4.140625q1.640625 -1.578125 4.453125 -1.578125q2.90625 0 4.484375 1.5q1.578125 1.484375 1.578125 4.21875q0 2.546875 -1.625 4.1406174q-1.625 1.578125 -4.4375 1.578125zm24.292145 56.40625l0 -57.984375l9.0625 0l0 57.984375l-9.0625 0zm-9.59375 -37.40625l0 -8.796875l29.390625 0l0 8.796875l-29.390625 0zm92.13516 38.28125q-6.6875 0 -12.5 -2.40625q-5.8125 -2.421875 -10.21875 -6.734375q-4.390625 -4.3125 -6.8125 -10.078125q-2.421875 -5.765625 -2.421875 -12.453125q0 -6.609375 2.421875 -12.328125q2.421875 -5.71875 6.78125 -9.984375q4.359375 -4.265625 10.15625 -6.6406174q5.8125 -2.375 12.5 -2.375q4.671875 0 9.1094055 1.328125q4.4375 1.3125 8.046875 3.6874924q3.609375 2.375 5.90625 5.453125l-6.171875 6.421875q-2.625 -2.546875 -5.40625 -4.21875q-2.765625 -1.671875 -5.6719055 -2.546875q-2.90625 -0.890625 -5.8125 -0.890625q-4.75 0 -8.765625 1.671875q-4.0 1.671875 -7.03125 4.671875q-3.03125 2.984375 -4.703125 7.0q-1.671875 4.0 -1.671875 8.75q0 4.578125 1.75 8.671875q1.765625 4.078125 4.890625 7.171875q3.125 3.078125 7.21875 4.84375q4.09375 1.75 8.671875 1.75q3.421875 0 6.5000305 -1.015625q3.09375 -1.015625 5.46875 -2.859375q2.375 -1.84375 3.6875 -4.265625q1.328125 -2.421875 1.328125 -5.140625l0 -1.765625l1.3125 1.234375l-18.828156 0l0 -9.421875l27.28128 0q0.171875 0.96875 0.25 1.890625q0.09375 0.921875 0.140625 1.765625q0.046875 0.828125 0.046875 1.625q0 6.078125 -2.109375 11.046875q-2.109375 4.96875 -5.859375 8.578125q-3.734375 3.609375 -8.71875 5.59375q-4.9687805 1.96875 -10.7656555 1.96875zm37.579926 -0.875l0 -46.203125l9.140625 0l0 14.515625l-0.875 -3.515625q0.96875 -3.34375 3.296875 -6.0625q2.328125 -2.734375 5.359375 -4.3125q3.046875 -1.59375 6.296875 -1.59375q1.5 0 2.859375 0.265625q1.375 0.265625 2.15625 0.625l-2.375 9.84375q-1.046875 -0.4375 -2.328125 -0.734375q-1.28125 -0.3125 -2.5 -0.3125q-2.390625 0 -4.546875 0.921875q-2.140625 0.921875 -3.78125 2.546875q-1.625 1.625 -2.59375 3.78125q-0.96875 2.15625 -0.96875 4.71875l0 25.515625l-9.140625 0zm54.2937 0.875q-6.78125 0 -12.109375 -3.125q-5.3125 -3.125 -8.406311 -8.53125q-3.078125 -5.40625 -3.078125 -12.359375q0 -6.953125 3.078125 -12.359375q3.093811 -5.421875 8.406311 -8.546875q5.328125 -3.125 12.109375 -3.125q6.6875 0 12.0 3.125q5.328125 3.125 8.40625 8.546875q3.078125 5.40625 3.078125 12.359375q0 6.953125 -3.078125 12.359375q-3.078125 5.40625 -8.40625 8.53125q-5.3125 3.125 -12.0 3.125zm0 -8.265625q4.125 0 7.375 -2.0625q3.265625 -2.078125 5.109375 -5.640625q1.859375 -3.5625 1.765625 -8.046875q0.09375 -4.578125 -1.765625 -8.140625q-1.84375 -3.5625 -5.109375 -5.578125q-3.25 -2.03125 -7.375 -2.03125q-4.140625 0 -7.4375 2.0625q-3.296875 2.0625 -5.15625 5.640625q-1.84375 3.5625 -1.75 8.046875q-0.09375 4.484375 1.75 8.046875q1.859375 3.5625 5.15625 5.640625q3.296875 2.0625 7.4375 2.0625zm42.93811 7.390625l-15.75 -46.203125l9.15625 -0.078125l11.265625 34.578125l-2.03125 -0.171875l12.234375 -27.015625l5.453125 0l12.328125 27.09375l-2.390625 0.1875l11.359375 -34.59375l9.15625 0l-15.578125 46.203125l-6.25 0l-12.84375 -29.390625l2.015625 0.265625l-11.96875 29.125l-6.15625 0z" fill-rule="nonzero"/><path fill="#ffffff" d="m134.86353 131.22437l65.82677 -58.267723l3.0551147 3.433075l-65.82677 58.267708z" fill-rule="evenodd"/><path stroke="#ffffff" stroke-width="1.7401574803149606" stroke-linejoin="round" stroke-linecap="butt" d="m134.86353 131.22437l65.82677 -58.267723l3.0551147 3.433075l-65.82677 58.267708z" fill-rule="evenodd"/><path fill="#ffffff" d="m66.5773 194.24796l64.50394 -59.59056l3.118103 3.4015808l-64.50393 59.590546z" fill-rule="evenodd"/><path stroke="#ffffff" stroke-width="1.7401574803149606" stroke-linejoin="round" stroke-linecap="butt" d="m66.5773 194.24796l64.50394 -59.59056l3.118103 3.4015808l-64.50393 59.590546z" fill-rule="evenodd"/><path fill="#ffffff" d="m286.0832 115.413216l59.18109 -64.944885l3.4015808 3.1496086l-59.18109 64.944885z" fill-rule="evenodd"/><path stroke="#ffffff" stroke-width="1.7401574803149606" stroke-linejoin="round" stroke-linecap="butt" d="m286.0832 115.413216l59.18109 -64.944885l3.4015808 3.1496086l-59.18109 64.944885z" fill-rule="evenodd"/><path fill="#ffffff" d="m205.84283 72.97538l80.06299 36.157486l-1.9212646 4.1574783l-80.06299 -36.15748z" fill-rule="evenodd"/><path stroke="#ffffff" stroke-width="1.7401574803149606" stroke-linejoin="round" stroke-linecap="butt" d="m205.84283 72.97538l80.06299 36.157486l-1.9212646 4.1574783l-80.06299 -36.15748z" fill-rule="evenodd"/><path fill="#ffffff" d="m125.57119 134.79572l0 0c0 -5.0966797 4.2656326 -9.228348 9.52755 -9.228348l0 0c2.5268707 0 4.950241 0.97226715 6.737015 2.7029114c1.7867584 1.7306519 2.7905579 4.0779266 2.7905579 6.5254364l0 0c0 5.0966644 -4.2656403 9.228348 -9.527573 9.228348l0 0c-5.261917 0 -9.52755 -4.1316833 -9.52755 -9.228348z" fill-rule="evenodd"/><path stroke="#ffffff" stroke-width="1.7401574803149606" stroke-linejoin="round" stroke-linecap="butt" d="m125.57119 134.79572l0 0c0 -5.0966797 4.2656326 -9.228348 9.52755 -9.228348l0 0c2.5268707 0 4.950241 0.97226715 6.737015 2.7029114c1.7867584 1.7306519 2.7905579 4.0779266 2.7905579 6.5254364l0 0c0 5.0966644 -4.2656403 9.228348 -9.527573 9.228348l0 0c-5.261917 0 -9.52755 -4.1316833 -9.52755 -9.228348z" fill-rule="evenodd"/><path fill="#ffffff" d="m60.136482 195.07193l0 0c0 -5.0966644 4.2656326 -9.2283325 9.527557 -9.2283325l0 0c2.5268707 0 4.950241 0.9722595 6.737007 2.7029114c1.7867584 1.7306519 2.7905579 4.0779114 2.7905579 6.525421l0 0c0 5.0966797 -4.2656403 9.228348 -9.527565 9.228348l0 0c-5.2619247 0 -9.527557 -4.131668 -9.527557 -9.228348z" fill-rule="evenodd"/><path stroke="#ffffff" stroke-width="1.7401574803149606" stroke-linejoin="round" stroke-linecap="butt" d="m60.136482 195.07193l0 0c0 -5.0966644 4.2656326 -9.2283325 9.527557 -9.2283325l0 0c2.5268707 0 4.950241 0.9722595 6.737007 2.7029114c1.7867584 1.7306519 2.7905579 4.0779114 2.7905579 6.525421l0 0c0 5.0966797 -4.2656403 9.228348 -9.527565 9.228348l0 0c-5.2619247 0 -9.527557 -4.131668 -9.527557 -9.228348z" fill-rule="evenodd"/><path fill="#ffffff" d="m192.81046 75.150894l0 0c0 -5.096672 4.2656403 -9.228348 9.527557 -9.228348l0 0c2.5268707 0 4.950241 0.9722748 6.7369995 2.702919c1.7867737 1.7306519 2.7905579 4.077919 2.7905579 6.525429l0 0c0 5.096672 -4.265625 9.228348 -9.527557 9.228348l0 0c-5.261917 0 -9.527557 -4.1316757 -9.527557 -9.228348z" fill-rule="evenodd"/><path stroke="#ffffff" stroke-width="1.7401574803149606" stroke-linejoin="round" stroke-linecap="butt" d="m192.81046 75.150894l0 0c0 -5.096672 4.2656403 -9.228348 9.527557 -9.228348l0 0c2.5268707 0 4.950241 0.9722748 6.7369995 2.702919c1.7867737 1.7306519 2.7905579 4.077919 2.7905579 6.525429l0 0c0 5.096672 -4.265625 9.228348 -9.527557 9.228348l0 0c-5.261917 0 -9.527557 -4.1316757 -9.527557 -9.228348z" fill-rule="evenodd"/><path fill="#ffffff" d="m276.718 113.971855l0 0c0 -5.096672 4.265625 -9.228348 9.527557 -9.228348l0 0c2.5268555 0 4.950226 0.9722748 6.7369995 2.7029266c1.7867432 1.7306442 2.7905579 4.0779114 2.7905579 6.525421l0 0c0 5.0966797 -4.2656555 9.228348 -9.527557 9.228348l0 0c-5.2619324 0 -9.527557 -4.131668 -9.527557 -9.228348z" fill-rule="evenodd"/><path stroke="#ffffff" stroke-width="1.7401574803149606" stroke-linejoin="round" stroke-linecap="butt" d="m276.718 113.971855l0 0c0 -5.096672 4.265625 -9.228348 9.527557 -9.228348l0 0c2.5268555 0 4.950226 0.9722748 6.7369995 2.7029266c1.7867432 1.7306442 2.7905579 4.0779114 2.7905579 6.525421l0 0c0 5.0966797 -4.2656555 9.228348 -9.527557 9.228348l0 0c-5.2619324 0 -9.527557 -4.131668 -9.527557 -9.228348z" fill-rule="evenodd"/><path fill="#ffffff" d="m336.92917 52.792652l0 0c0 -5.096676 4.2656555 -9.228348 9.527557 -9.228348l0 0c2.526886 0 4.9502563 0.97227097 6.73703 2.702919c1.7867432 1.7306519 2.7905273 4.077919 2.7905273 6.525429l0 0c0 5.096672 -4.265625 9.228344 -9.527557 9.228344l0 0c-5.261902 0 -9.527557 -4.131672 -9.527557 -9.228344z" fill-rule="evenodd"/><path stroke="#ffffff" stroke-width="1.7401574803149606" stroke-linejoin="round" stroke-linecap="butt" d="m336.92917 52.792652l0 0c0 -5.096676 4.2656555 -9.228348 9.527557 -9.228348l0 0c2.526886 0 4.9502563 0.97227097 6.73703 2.702919c1.7867432 1.7306519 2.7905273 4.077919 2.7905273 6.525429l0 0c0 5.096672 -4.265625 9.228344 -9.527557 9.228344l0 0c-5.261902 0 -9.527557 -4.131672 -9.527557 -9.228344z" fill-rule="evenodd"/></g></svg>