<svg version="1.1" viewBox="0.0 0.0 332.6955380577428 333.12073490813646" fill="none" stroke="none" stroke-linecap="square" stroke-miterlimit="10" xmlns:xlink="http://www.w3.org/1999/xlink" xmlns="http://www.w3.org/2000/svg"><clipPath id="p.0"><path d="m0 0l332.69553 0l0 333.12073l-332.69553 0l0 -333.12073z" clip-rule="nonzero"/></clipPath><g clip-path="url(#p.0)"><path fill="#000000" fill-opacity="0.0" d="m0 0l332.69553 0l0 333.12073l-332.69553 0z" fill-rule="evenodd"/><path fill="#00b7b5" d="m36.669518 70.59933l0 0c0 -25.333126 20.536556 -45.869682 45.869682 -45.869682l183.47322 0l0 0c12.165405 0 23.83255 4.8326855 32.434784 13.434919c8.602234 8.602234 13.434906 20.269367 13.434906 32.434765l0 190.02441c0 25.33313 -20.53656 45.86966 -45.86969 45.86966l-183.47322 0l0 0c-25.333126 0 -45.869682 -20.53653 -45.869682 -45.86966z" fill-rule="evenodd"/><path fill="#018790" d="m26.15747 66.441765l0 0c0 -23.036968 18.675152 -41.71212 41.71212 -41.71212l166.84348 0l0 0c11.062729 0 21.672363 4.394657 29.494904 12.217199c7.8225403 7.8225403 12.217224 18.432178 12.217224 29.494923l0 198.33954c0 23.036957 -18.67517 41.712097 -41.712128 41.712097l-166.84348 0c-23.036968 0 -41.71212 -18.67514 -41.71212 -41.712097z" fill-rule="evenodd"/><path fill="#005461" d="m20.813648 61.41804l0 0c0 -20.262444 16.425957 -36.6884 36.688396 -36.6884l146.74919 0l0 0c9.730362 0 19.06221 3.8653736 25.942612 10.745783c6.880417 6.8804092 10.745789 16.212246 10.745789 25.942616l0 208.38698c0 20.262451 -16.425964 36.688385 -36.6884 36.688385l-146.74919 0c-20.26244 0 -36.688396 -16.425934 -36.688396 -36.688385z" fill-rule="evenodd"/><path fill="#ffffff" d="m64.37814 239.56204l19.433075 -87.33859l13.763779 2.9606323l-19.433075 87.33859z" fill-rule="evenodd"/><path stroke="#ffffff" stroke-width="2.0498687664041992" stroke-linejoin="round" stroke-linecap="butt" d="m64.37814 239.56204l19.433075 -87.33859l13.763779 2.9606323l-19.433075 87.33859z" fill-rule="evenodd"/><path fill="#ffffff" d="m165.06969 186.65485l20.377945 -105.95276l12.881897 2.645668l-20.37796 105.95275z" fill-rule="evenodd"/><path stroke="#ffffff" stroke-width="2.0498687664041992" stroke-linejoin="round" stroke-linecap="butt" d="m165.06969 186.65485l20.377945 -105.95276l12.881897 2.645668l-20.37796 105.95275z" fill-rule="evenodd"/><path fill="#ffffff" d="m103.87599 147.50543l58.29921 29.826767l-6.2992096 11.968506l-58.299217 -29.826767z" fill-rule="evenodd"/><path stroke="#ffffff" stroke-width="2.0498687664041992" stroke-linejoin="round" stroke-linecap="butt" d="m103.87599 147.50543l58.29921 29.826767l-6.2992096 11.968506l-58.299217 -29.826767z" fill-rule="evenodd"/><path fill="#ffffff" d="m174.20218 78.92759l0 0c1.4611664 -9.262726 10.626984 -15.50959 20.472443 -13.952759l0 0c4.727951 0.7476196 8.9835205 3.2316284 11.830536 6.905571c2.8470001 3.673935 4.052246 8.236862 3.3505707 12.684982l0 0c-1.4611664 9.262726 -10.626984 15.50959 -20.472443 13.952759l0 0c-9.845459 -1.556839 -16.642273 -10.327827 -15.181107 -19.590553z" fill-rule="evenodd"/><path stroke="#ffffff" stroke-width="2.0498687664041992" stroke-linejoin="round" stroke-linecap="butt" d="m174.20218 78.92759l0 0c1.4611664 -9.262726 10.626984 -15.50959 20.472443 -13.952759l0 0c4.727951 0.7476196 8.9835205 3.2316284 11.830536 6.905571c2.8470001 3.673935 4.052246 8.236862 3.3505707 12.684982l0 0c-1.4611664 9.262726 -10.626984 15.50959 -20.472443 13.952759l0 0c-9.845459 -1.556839 -16.642273 -10.327827 -15.181107 -19.590553z" fill-rule="evenodd"/><path fill="#ffffff" d="m150.3476 187.01709l0 0c1.4611664 -9.262726 10.626999 -15.509598 20.472443 -13.952759l0 0c4.7279663 0.7476196 8.983536 3.2316284 11.830536 6.9055634c2.8470154 3.6739502 4.052246 8.236862 3.3505707 12.684982l0 0c-1.4611664 9.262741 -10.626984 15.509598 -20.472443 13.952759l0 0c-9.845444 -1.5568237 -16.642258 -10.32782 -15.181107 -19.590546z" fill-rule="evenodd"/><path stroke="#ffffff" stroke-width="2.0498687664041992" stroke-linejoin="round" stroke-linecap="butt" d="m150.3476 187.01709l0 0c1.4611664 -9.262726 10.626999 -15.509598 20.472443 -13.952759l0 0c4.7279663 0.7476196 8.983536 3.2316284 11.830536 6.9055634c2.8470154 3.6739502 4.052246 8.236862 3.3505707 12.684982l0 0c-1.4611664 9.262741 -10.626984 15.509598 -20.472443 13.952759l0 0c-9.845444 -1.5568237 -16.642258 -10.32782 -15.181107 -19.590546z" fill-rule="evenodd"/><path fill="#ffffff" d="m76.18404 153.38634l0 0c1.4611588 -9.262741 10.626984 -15.509598 20.472443 -13.952759l0 0c4.727951 0.7476196 8.9835205 3.2316132 11.830528 6.9055634c2.8470078 3.673935 4.052246 8.236862 3.3505707 12.684982l0 0c-1.4611588 9.262726 -10.626984 15.509598 -20.472443 13.952759l0 0c-9.845451 -1.556839 -16.642265 -10.32782 -15.181099 -19.590546z" fill-rule="evenodd"/><path stroke="#ffffff" stroke-width="2.0498687664041992" stroke-linejoin="round" stroke-linecap="butt" d="m76.18404 153.38634l0 0c1.4611588 -9.262741 10.626984 -15.509598 20.472443 -13.952759l0 0c4.727951 0.7476196 8.9835205 3.2316132 11.830528 6.9055634c2.8470078 3.673935 4.052246 8.236862 3.3505707 12.684982l0 0c-1.4611588 9.262726 -10.626984 15.509598 -20.472443 13.952759l0 0c-9.845451 -1.556839 -16.642265 -10.32782 -15.181099 -19.590546z" fill-rule="evenodd"/><path fill="#ffffff" d="m51.895348 246.65685l0 0c1.4611626 -9.262726 10.626987 -15.509598 20.472443 -13.952759l0 0c4.727951 0.7476196 8.9835205 3.2316284 11.830528 6.9055634c2.8470078 3.673935 4.052246 8.236862 3.3505707 12.684982l0 0c-1.4611588 9.262741 -10.626984 15.509598 -20.472443 13.952774l0 0c-9.845451 -1.5568542 -16.642262 -10.327835 -15.181099 -19.59056z" fill-rule="evenodd"/><path stroke="#ffffff" stroke-width="2.0498687664041992" stroke-linejoin="round" stroke-linecap="butt" d="m51.895348 246.65685l0 0c1.4611626 -9.262726 10.626987 -15.509598 20.472443 -13.952759l0 0c4.727951 0.7476196 8.9835205 3.2316284 11.830528 6.9055634c2.8470078 3.673935 4.052246 8.236862 3.3505707 12.684982l0 0c-1.4611588 9.262741 -10.626984 15.509598 -20.472443 13.952774l0 0c-9.845451 -1.5568542 -16.642262 -10.327835 -15.181099 -19.59056z" fill-rule="evenodd"/></g></svg>